{
    "asset" : {
        "generator" : "Khronos Blender glTF 2.0 I/O",
        "version" : "2.0"
    },
    "scene" : 0,
    "scenes" : [
        {
            "name" : "Scene",
            "nodes" : [
                0,
                1,
                2
            ]
        }
    ],
    "nodes" : [
        {
            "name" : "Light",
            "rotation" : [
                0.16907575726509094,
                0.7558802962303162,
                -0.27217137813568115,
                0.570947527885437
            ],
            "translation" : [
                4.076245307922363,
                5.903861999511719,
                -1.0054539442062378
            ]
        },
        {
            "name" : "Camera",
            "rotation" : [
                0.483536034822464,
                0.33687159419059753,
                -0.20870360732078552,
                0.7804827094078064
            ],
            "translation" : [
                7.358891487121582,
                4.958309173583984,
                6.925790786743164
            ]
        },
        {
            "mesh" : 0,
            "name" : "default002",
            "rotation" : [
                -0.007782015949487686,
                0,
                0,
                0.9999697208404541
            ],
            "scale" : [
                0.0008867648430168629,
                0.0006820661947131157,
                0.0007382509647868574
            ],
            "translation" : [
                0,
                0.02460934966802597,
                0.02291717380285263
            ]
        }
    ],
    "animations" : [
        {
            "channels" : [
                {
                    "sampler" : 0,
                    "target" : {
                        "node" : 2,
                        "path" : "translation"
                    }
                },
                {
                    "sampler" : 1,
                    "target" : {
                        "node" : 2,
                        "path" : "rotation"
                    }
                },
                {
                    "sampler" : 2,
                    "target" : {
                        "node" : 2,
                        "path" : "scale"
                    }
                }
            ],
            "name" : "default002|Take 001|BaseLayer",
            "samplers" : [
                {
                    "input" : 5,
                    "interpolation" : "STEP",
                    "output" : 6
                },
                {
                    "input" : 5,
                    "interpolation" : "STEP",
                    "output" : 7
                },
                {
                    "input" : 5,
                    "interpolation" : "STEP",
                    "output" : 8
                }
            ]
        }
    ],
    "materials" : [
        {
            "alphaMode" : "BLEND",
            "name" : "01 - Default",
            "pbrMetallicRoughness" : {
                "baseColorTexture" : {
                    "index" : 0,
                    "texCoord" : 0
                },
                "metallicFactor" : 1,
                "roughnessFactor" : 0.858578622341156
            }
        }
    ],
    "meshes" : [
        {
            "name" : "Mesh",
            "primitives" : [
                {
                    "attributes" : {
                        "POSITION" : 0,
                        "NORMAL" : 1,
                        "TEXCOORD_0" : 2,
                        "COLOR_0" : 3
                    },
                    "indices" : 4,
                    "material" : 0
                }
            ]
        }
    ],
    "textures" : [
        {
            "source" : 0
        }
    ],
    "images" : [
        {
            "bufferView" : 5,
            "mimeType" : "image/png",
            "name" : "Map #3"
        }
    ],
    "accessors" : [
        {
            "bufferView" : 0,
            "componentType" : 5126,
            "count" : 2157,
            "max" : [
                100.6780014038086,
                177.97430419921875,
                130.19700622558594
            ],
            "min" : [
                -101.17500305175781,
                -176.0663299560547,
                -126.29299926757812
            ],
            "type" : "VEC3"
        },
        {
            "bufferView" : 1,
            "componentType" : 5126,
            "count" : 2157,
            "type" : "VEC3"
        },
        {
            "bufferView" : 2,
            "componentType" : 5126,
            "count" : 2157,
            "type" : "VEC2"
        },
        {
            "bufferView" : 3,
            "componentType" : 5126,
            "count" : 2157,
            "type" : "VEC4"
        },
        {
            "bufferView" : 4,
            "componentType" : 5123,
            "count" : 10992,
            "type" : "SCALAR"
        },
        {
            "bufferView" : 6,
            "componentType" : 5126,
            "count" : 1,
            "max" : [
                0.03333333333333333
            ],
            "min" : [
                0.03333333333333333
            ],
            "type" : "SCALAR"
        },
        {
            "bufferView" : 7,
            "componentType" : 5126,
            "count" : 1,
            "type" : "VEC3"
        },
        {
            "bufferView" : 8,
            "componentType" : 5126,
            "count" : 1,
            "type" : "VEC4"
        },
        {
            "bufferView" : 9,
            "componentType" : 5126,
            "count" : 1,
            "type" : "VEC3"
        }
    ],
    "bufferViews" : [
        {
            "buffer" : 0,
            "byteLength" : 25884,
            "byteOffset" : 0
        },
        {
            "buffer" : 0,
            "byteLength" : 25884,
            "byteOffset" : 25884
        },
        {
            "buffer" : 0,
            "byteLength" : 17256,
            "byteOffset" : 51768
        },
        {
            "buffer" : 0,
            "byteLength" : 34512,
            "byteOffset" : 69024
        },
        {
            "buffer" : 0,
            "byteLength" : 21984,
            "byteOffset" : 103536
        },
        {
            "buffer" : 0,
            "byteLength" : 1478580,
            "byteOffset" : 125520
        },
        {
            "buffer" : 0,
            "byteLength" : 4,
            "byteOffset" : 1604100
        },
        {
            "buffer" : 0,
            "byteLength" : 12,
            "byteOffset" : 1604104
        },
        {
            "buffer" : 0,
            "byteLength" : 16,
            "byteOffset" : 1604116
        },
        {
            "buffer" : 0,
            "byteLength" : 12,
            "byteOffset" : 1604132
        }
    ],
    "buffers" : [
        {
            "byteLength" : 1604144,
            "uri" : "data:application/octet-stream;base64,"
        }
    ]
}
